<mxfile host="Electron" agent="Mozilla/5.0 (Windows NT 10.0; Win64; x64) AppleWebKit/537.36 (KHTML, like Gecko) draw.io/26.0.16 Chrome/132.0.6834.196 Electron/34.2.0 Safari/537.36" version="26.0.16">
  <diagram name="Page-1" id="grdmKqno7u6PltmhM5hs">
    <mxGraphModel dx="1050" dy="691" grid="0" gridSize="10" guides="1" tooltips="1" connect="1" arrows="1" fold="1" page="1" pageScale="1" pageWidth="850" pageHeight="1100" math="0" shadow="0">
      <root>
        <mxCell id="0" />
        <mxCell id="1" parent="0" />
        <mxCell id="h7mdjLOpak-RBpqD__Zv-1" value="Product" style="shape=table;startSize=30;container=1;collapsible=1;childLayout=tableLayout;fixedRows=1;rowLines=0;fontStyle=1;align=center;resizeLast=1;html=1;" vertex="1" parent="1">
          <mxGeometry x="93" y="162" width="156" height="267" as="geometry" />
        </mxCell>
        <mxCell id="h7mdjLOpak-RBpqD__Zv-2" value="" style="shape=tableRow;horizontal=0;startSize=0;swimlaneHead=0;swimlaneBody=0;fillColor=none;collapsible=0;dropTarget=0;points=[[0,0.5],[1,0.5]];portConstraint=eastwest;top=0;left=0;right=0;bottom=1;" vertex="1" parent="h7mdjLOpak-RBpqD__Zv-1">
          <mxGeometry y="30" width="156" height="30" as="geometry" />
        </mxCell>
        <mxCell id="h7mdjLOpak-RBpqD__Zv-3" value="PK" style="shape=partialRectangle;connectable=0;fillColor=none;top=0;left=0;bottom=0;right=0;fontStyle=1;overflow=hidden;whiteSpace=wrap;html=1;" vertex="1" parent="h7mdjLOpak-RBpqD__Zv-2">
          <mxGeometry width="54.350006103515625" height="30" as="geometry">
            <mxRectangle width="54.350006103515625" height="30" as="alternateBounds" />
          </mxGeometry>
        </mxCell>
        <mxCell id="h7mdjLOpak-RBpqD__Zv-4" value="ProductId&lt;span style=&quot;white-space: pre;&quot;&gt;&#x9;&lt;/span&gt;" style="shape=partialRectangle;connectable=0;fillColor=none;top=0;left=0;bottom=0;right=0;align=left;spacingLeft=6;fontStyle=5;overflow=hidden;whiteSpace=wrap;html=1;" vertex="1" parent="h7mdjLOpak-RBpqD__Zv-2">
          <mxGeometry x="54.350006103515625" width="101.64999389648438" height="30" as="geometry">
            <mxRectangle width="101.64999389648438" height="30" as="alternateBounds" />
          </mxGeometry>
        </mxCell>
        <mxCell id="h7mdjLOpak-RBpqD__Zv-5" value="" style="shape=tableRow;horizontal=0;startSize=0;swimlaneHead=0;swimlaneBody=0;fillColor=none;collapsible=0;dropTarget=0;points=[[0,0.5],[1,0.5]];portConstraint=eastwest;top=0;left=0;right=0;bottom=0;" vertex="1" parent="h7mdjLOpak-RBpqD__Zv-1">
          <mxGeometry y="60" width="156" height="29" as="geometry" />
        </mxCell>
        <mxCell id="h7mdjLOpak-RBpqD__Zv-6" value="string" style="shape=partialRectangle;connectable=0;fillColor=none;top=0;left=0;bottom=0;right=0;editable=1;overflow=hidden;whiteSpace=wrap;html=1;" vertex="1" parent="h7mdjLOpak-RBpqD__Zv-5">
          <mxGeometry width="54.350006103515625" height="29" as="geometry">
            <mxRectangle width="54.350006103515625" height="29" as="alternateBounds" />
          </mxGeometry>
        </mxCell>
        <mxCell id="h7mdjLOpak-RBpqD__Zv-7" value="Name" style="shape=partialRectangle;connectable=0;fillColor=none;top=0;left=0;bottom=0;right=0;align=left;spacingLeft=6;overflow=hidden;whiteSpace=wrap;html=1;" vertex="1" parent="h7mdjLOpak-RBpqD__Zv-5">
          <mxGeometry x="54.350006103515625" width="101.64999389648438" height="29" as="geometry">
            <mxRectangle width="101.64999389648438" height="29" as="alternateBounds" />
          </mxGeometry>
        </mxCell>
        <mxCell id="h7mdjLOpak-RBpqD__Zv-8" value="" style="shape=tableRow;horizontal=0;startSize=0;swimlaneHead=0;swimlaneBody=0;fillColor=none;collapsible=0;dropTarget=0;points=[[0,0.5],[1,0.5]];portConstraint=eastwest;top=0;left=0;right=0;bottom=0;" vertex="1" parent="h7mdjLOpak-RBpqD__Zv-1">
          <mxGeometry y="89" width="156" height="26" as="geometry" />
        </mxCell>
        <mxCell id="h7mdjLOpak-RBpqD__Zv-9" value="string" style="shape=partialRectangle;connectable=0;fillColor=none;top=0;left=0;bottom=0;right=0;editable=1;overflow=hidden;whiteSpace=wrap;html=1;" vertex="1" parent="h7mdjLOpak-RBpqD__Zv-8">
          <mxGeometry width="54.350006103515625" height="26" as="geometry">
            <mxRectangle width="54.350006103515625" height="26" as="alternateBounds" />
          </mxGeometry>
        </mxCell>
        <mxCell id="h7mdjLOpak-RBpqD__Zv-10" value="Description" style="shape=partialRectangle;connectable=0;fillColor=none;top=0;left=0;bottom=0;right=0;align=left;spacingLeft=6;overflow=hidden;whiteSpace=wrap;html=1;" vertex="1" parent="h7mdjLOpak-RBpqD__Zv-8">
          <mxGeometry x="54.350006103515625" width="101.64999389648438" height="26" as="geometry">
            <mxRectangle width="101.64999389648438" height="26" as="alternateBounds" />
          </mxGeometry>
        </mxCell>
        <mxCell id="h7mdjLOpak-RBpqD__Zv-11" value="" style="shape=tableRow;horizontal=0;startSize=0;swimlaneHead=0;swimlaneBody=0;fillColor=none;collapsible=0;dropTarget=0;points=[[0,0.5],[1,0.5]];portConstraint=eastwest;top=0;left=0;right=0;bottom=0;" vertex="1" parent="h7mdjLOpak-RBpqD__Zv-1">
          <mxGeometry y="115" width="156" height="32" as="geometry" />
        </mxCell>
        <mxCell id="h7mdjLOpak-RBpqD__Zv-12" value="Double" style="shape=partialRectangle;connectable=0;fillColor=none;top=0;left=0;bottom=0;right=0;editable=1;overflow=hidden;whiteSpace=wrap;html=1;" vertex="1" parent="h7mdjLOpak-RBpqD__Zv-11">
          <mxGeometry width="54.350006103515625" height="32" as="geometry">
            <mxRectangle width="54.350006103515625" height="32" as="alternateBounds" />
          </mxGeometry>
        </mxCell>
        <mxCell id="h7mdjLOpak-RBpqD__Zv-13" value="Price&amp;nbsp;" style="shape=partialRectangle;connectable=0;fillColor=none;top=0;left=0;bottom=0;right=0;align=left;spacingLeft=6;overflow=hidden;whiteSpace=wrap;html=1;" vertex="1" parent="h7mdjLOpak-RBpqD__Zv-11">
          <mxGeometry x="54.350006103515625" width="101.64999389648438" height="32" as="geometry">
            <mxRectangle width="101.64999389648438" height="32" as="alternateBounds" />
          </mxGeometry>
        </mxCell>
        <mxCell id="h7mdjLOpak-RBpqD__Zv-14" value="" style="shape=tableRow;horizontal=0;startSize=0;swimlaneHead=0;swimlaneBody=0;fillColor=none;collapsible=0;dropTarget=0;points=[[0,0.5],[1,0.5]];portConstraint=eastwest;top=0;left=0;right=0;bottom=0;" vertex="1" parent="h7mdjLOpak-RBpqD__Zv-1">
          <mxGeometry y="147" width="156" height="30" as="geometry" />
        </mxCell>
        <mxCell id="h7mdjLOpak-RBpqD__Zv-15" value="int" style="shape=partialRectangle;connectable=0;fillColor=none;top=0;left=0;bottom=0;right=0;editable=1;overflow=hidden;whiteSpace=wrap;html=1;" vertex="1" parent="h7mdjLOpak-RBpqD__Zv-14">
          <mxGeometry width="54.350006103515625" height="30" as="geometry">
            <mxRectangle width="54.350006103515625" height="30" as="alternateBounds" />
          </mxGeometry>
        </mxCell>
        <mxCell id="h7mdjLOpak-RBpqD__Zv-16" value="StockQuantity" style="shape=partialRectangle;connectable=0;fillColor=none;top=0;left=0;bottom=0;right=0;align=left;spacingLeft=6;overflow=hidden;whiteSpace=wrap;html=1;" vertex="1" parent="h7mdjLOpak-RBpqD__Zv-14">
          <mxGeometry x="54.350006103515625" width="101.64999389648438" height="30" as="geometry">
            <mxRectangle width="101.64999389648438" height="30" as="alternateBounds" />
          </mxGeometry>
        </mxCell>
        <mxCell id="h7mdjLOpak-RBpqD__Zv-17" value="" style="shape=tableRow;horizontal=0;startSize=0;swimlaneHead=0;swimlaneBody=0;fillColor=none;collapsible=0;dropTarget=0;points=[[0,0.5],[1,0.5]];portConstraint=eastwest;top=0;left=0;right=0;bottom=0;" vertex="1" parent="h7mdjLOpak-RBpqD__Zv-1">
          <mxGeometry y="177" width="156" height="30" as="geometry" />
        </mxCell>
        <mxCell id="h7mdjLOpak-RBpqD__Zv-18" value="" style="shape=partialRectangle;connectable=0;fillColor=none;top=0;left=0;bottom=0;right=0;editable=1;overflow=hidden;whiteSpace=wrap;html=1;" vertex="1" parent="h7mdjLOpak-RBpqD__Zv-17">
          <mxGeometry width="54.350006103515625" height="30" as="geometry">
            <mxRectangle width="54.350006103515625" height="30" as="alternateBounds" />
          </mxGeometry>
        </mxCell>
        <mxCell id="h7mdjLOpak-RBpqD__Zv-19" value="ImageURL" style="shape=partialRectangle;connectable=0;fillColor=none;top=0;left=0;bottom=0;right=0;align=left;spacingLeft=6;overflow=hidden;whiteSpace=wrap;html=1;" vertex="1" parent="h7mdjLOpak-RBpqD__Zv-17">
          <mxGeometry x="54.350006103515625" width="101.64999389648438" height="30" as="geometry">
            <mxRectangle width="101.64999389648438" height="30" as="alternateBounds" />
          </mxGeometry>
        </mxCell>
        <mxCell id="h7mdjLOpak-RBpqD__Zv-20" value="" style="shape=tableRow;horizontal=0;startSize=0;swimlaneHead=0;swimlaneBody=0;fillColor=none;collapsible=0;dropTarget=0;points=[[0,0.5],[1,0.5]];portConstraint=eastwest;top=0;left=0;right=0;bottom=0;" vertex="1" parent="h7mdjLOpak-RBpqD__Zv-1">
          <mxGeometry y="207" width="156" height="30" as="geometry" />
        </mxCell>
        <mxCell id="h7mdjLOpak-RBpqD__Zv-21" value="DateTime" style="shape=partialRectangle;connectable=0;fillColor=none;top=0;left=0;bottom=0;right=0;editable=1;overflow=hidden;whiteSpace=wrap;html=1;" vertex="1" parent="h7mdjLOpak-RBpqD__Zv-20">
          <mxGeometry width="54.350006103515625" height="30" as="geometry">
            <mxRectangle width="54.350006103515625" height="30" as="alternateBounds" />
          </mxGeometry>
        </mxCell>
        <mxCell id="h7mdjLOpak-RBpqD__Zv-22" value="CreatedAt" style="shape=partialRectangle;connectable=0;fillColor=none;top=0;left=0;bottom=0;right=0;align=left;spacingLeft=6;overflow=hidden;whiteSpace=wrap;html=1;" vertex="1" parent="h7mdjLOpak-RBpqD__Zv-20">
          <mxGeometry x="54.350006103515625" width="101.64999389648438" height="30" as="geometry">
            <mxRectangle width="101.64999389648438" height="30" as="alternateBounds" />
          </mxGeometry>
        </mxCell>
        <mxCell id="h7mdjLOpak-RBpqD__Zv-71" value="" style="shape=tableRow;horizontal=0;startSize=0;swimlaneHead=0;swimlaneBody=0;fillColor=none;collapsible=0;dropTarget=0;points=[[0,0.5],[1,0.5]];portConstraint=eastwest;top=0;left=0;right=0;bottom=0;" vertex="1" parent="h7mdjLOpak-RBpqD__Zv-1">
          <mxGeometry y="237" width="156" height="30" as="geometry" />
        </mxCell>
        <mxCell id="h7mdjLOpak-RBpqD__Zv-72" value="&lt;b&gt;FK&lt;/b&gt;" style="shape=partialRectangle;connectable=0;fillColor=none;top=0;left=0;bottom=0;right=0;editable=1;overflow=hidden;whiteSpace=wrap;html=1;" vertex="1" parent="h7mdjLOpak-RBpqD__Zv-71">
          <mxGeometry width="54.350006103515625" height="30" as="geometry">
            <mxRectangle width="54.350006103515625" height="30" as="alternateBounds" />
          </mxGeometry>
        </mxCell>
        <mxCell id="h7mdjLOpak-RBpqD__Zv-73" value="CategoryId" style="shape=partialRectangle;connectable=0;fillColor=none;top=0;left=0;bottom=0;right=0;align=left;spacingLeft=6;overflow=hidden;whiteSpace=wrap;html=1;" vertex="1" parent="h7mdjLOpak-RBpqD__Zv-71">
          <mxGeometry x="54.350006103515625" width="101.64999389648438" height="30" as="geometry">
            <mxRectangle width="101.64999389648438" height="30" as="alternateBounds" />
          </mxGeometry>
        </mxCell>
        <mxCell id="h7mdjLOpak-RBpqD__Zv-26" value="Category" style="shape=table;startSize=30;container=1;collapsible=1;childLayout=tableLayout;fixedRows=1;rowLines=0;fontStyle=1;align=center;resizeLast=1;html=1;" vertex="1" parent="1">
          <mxGeometry x="616" y="150" width="218" height="162.94995727539063" as="geometry" />
        </mxCell>
        <mxCell id="h7mdjLOpak-RBpqD__Zv-27" value="" style="shape=tableRow;horizontal=0;startSize=0;swimlaneHead=0;swimlaneBody=0;fillColor=none;collapsible=0;dropTarget=0;points=[[0,0.5],[1,0.5]];portConstraint=eastwest;top=0;left=0;right=0;bottom=1;" vertex="1" parent="h7mdjLOpak-RBpqD__Zv-26">
          <mxGeometry y="30" width="218" height="30" as="geometry" />
        </mxCell>
        <mxCell id="h7mdjLOpak-RBpqD__Zv-28" value="PK" style="shape=partialRectangle;connectable=0;fillColor=none;top=0;left=0;bottom=0;right=0;fontStyle=1;overflow=hidden;whiteSpace=wrap;html=1;" vertex="1" parent="h7mdjLOpak-RBpqD__Zv-27">
          <mxGeometry width="100.14996337890625" height="30" as="geometry">
            <mxRectangle width="100.14996337890625" height="30" as="alternateBounds" />
          </mxGeometry>
        </mxCell>
        <mxCell id="h7mdjLOpak-RBpqD__Zv-29" value="CategoryId" style="shape=partialRectangle;connectable=0;fillColor=none;top=0;left=0;bottom=0;right=0;align=left;spacingLeft=6;fontStyle=5;overflow=hidden;whiteSpace=wrap;html=1;" vertex="1" parent="h7mdjLOpak-RBpqD__Zv-27">
          <mxGeometry x="100.14996337890625" width="117.85003662109375" height="30" as="geometry">
            <mxRectangle width="117.85003662109375" height="30" as="alternateBounds" />
          </mxGeometry>
        </mxCell>
        <mxCell id="h7mdjLOpak-RBpqD__Zv-42" value="" style="shape=tableRow;horizontal=0;startSize=0;swimlaneHead=0;swimlaneBody=0;fillColor=none;collapsible=0;dropTarget=0;points=[[0,0.5],[1,0.5]];portConstraint=eastwest;top=0;left=0;right=0;bottom=0;" vertex="1" parent="h7mdjLOpak-RBpqD__Zv-26">
          <mxGeometry y="60" width="218" height="43" as="geometry" />
        </mxCell>
        <mxCell id="h7mdjLOpak-RBpqD__Zv-43" value="&lt;b&gt;FK&lt;/b&gt;" style="shape=partialRectangle;connectable=0;fillColor=none;top=0;left=0;bottom=0;right=0;editable=1;overflow=hidden;whiteSpace=wrap;html=1;" vertex="1" parent="h7mdjLOpak-RBpqD__Zv-42">
          <mxGeometry width="100.14996337890625" height="43" as="geometry">
            <mxRectangle width="100.14996337890625" height="43" as="alternateBounds" />
          </mxGeometry>
        </mxCell>
        <mxCell id="h7mdjLOpak-RBpqD__Zv-44" value="&#xa;&lt;span style=&quot;color: rgb(0, 0, 0); font-family: Helvetica; font-size: 12px; font-style: normal; font-variant-ligatures: normal; font-variant-caps: normal; font-weight: 400; letter-spacing: normal; orphans: 2; text-align: center; text-indent: 0px; text-transform: none; widows: 2; word-spacing: 0px; -webkit-text-stroke-width: 0px; white-space: normal; background-color: rgb(251, 251, 251); text-decoration-thickness: initial; text-decoration-style: initial; text-decoration-color: initial; display: inline !important; float: none;&quot;&gt;PatentCategoryId&lt;/span&gt;&#xa;&#xa;" style="shape=partialRectangle;connectable=0;fillColor=none;top=0;left=0;bottom=0;right=0;align=left;spacingLeft=6;overflow=hidden;whiteSpace=wrap;html=1;" vertex="1" parent="h7mdjLOpak-RBpqD__Zv-42">
          <mxGeometry x="100.14996337890625" width="117.85003662109375" height="43" as="geometry">
            <mxRectangle width="117.85003662109375" height="43" as="alternateBounds" />
          </mxGeometry>
        </mxCell>
        <mxCell id="h7mdjLOpak-RBpqD__Zv-30" value="" style="shape=tableRow;horizontal=0;startSize=0;swimlaneHead=0;swimlaneBody=0;fillColor=none;collapsible=0;dropTarget=0;points=[[0,0.5],[1,0.5]];portConstraint=eastwest;top=0;left=0;right=0;bottom=0;" vertex="1" parent="h7mdjLOpak-RBpqD__Zv-26">
          <mxGeometry y="103" width="218" height="29" as="geometry" />
        </mxCell>
        <mxCell id="h7mdjLOpak-RBpqD__Zv-31" value="string" style="shape=partialRectangle;connectable=0;fillColor=none;top=0;left=0;bottom=0;right=0;editable=1;overflow=hidden;whiteSpace=wrap;html=1;" vertex="1" parent="h7mdjLOpak-RBpqD__Zv-30">
          <mxGeometry width="100.14996337890625" height="29" as="geometry">
            <mxRectangle width="100.14996337890625" height="29" as="alternateBounds" />
          </mxGeometry>
        </mxCell>
        <mxCell id="h7mdjLOpak-RBpqD__Zv-32" value="Name" style="shape=partialRectangle;connectable=0;fillColor=none;top=0;left=0;bottom=0;right=0;align=left;spacingLeft=6;overflow=hidden;whiteSpace=wrap;html=1;" vertex="1" parent="h7mdjLOpak-RBpqD__Zv-30">
          <mxGeometry x="100.14996337890625" width="117.85003662109375" height="29" as="geometry">
            <mxRectangle width="117.85003662109375" height="29" as="alternateBounds" />
          </mxGeometry>
        </mxCell>
        <mxCell id="h7mdjLOpak-RBpqD__Zv-45" value="" style="shape=tableRow;horizontal=0;startSize=0;swimlaneHead=0;swimlaneBody=0;fillColor=none;collapsible=0;dropTarget=0;points=[[0,0.5],[1,0.5]];portConstraint=eastwest;top=0;left=0;right=0;bottom=0;" vertex="1" parent="h7mdjLOpak-RBpqD__Zv-26">
          <mxGeometry y="132" width="218" height="30" as="geometry" />
        </mxCell>
        <mxCell id="h7mdjLOpak-RBpqD__Zv-46" value="DateTime" style="shape=partialRectangle;connectable=0;fillColor=none;top=0;left=0;bottom=0;right=0;editable=1;overflow=hidden;whiteSpace=wrap;html=1;" vertex="1" parent="h7mdjLOpak-RBpqD__Zv-45">
          <mxGeometry width="100.14996337890625" height="30" as="geometry">
            <mxRectangle width="100.14996337890625" height="30" as="alternateBounds" />
          </mxGeometry>
        </mxCell>
        <mxCell id="h7mdjLOpak-RBpqD__Zv-47" value="CreatedAt" style="shape=partialRectangle;connectable=0;fillColor=none;top=0;left=0;bottom=0;right=0;align=left;spacingLeft=6;overflow=hidden;whiteSpace=wrap;html=1;" vertex="1" parent="h7mdjLOpak-RBpqD__Zv-45">
          <mxGeometry x="100.14996337890625" width="117.85003662109375" height="30" as="geometry">
            <mxRectangle width="117.85003662109375" height="30" as="alternateBounds" />
          </mxGeometry>
        </mxCell>
        <mxCell id="h7mdjLOpak-RBpqD__Zv-74" value="" style="edgeStyle=entityRelationEdgeStyle;fontSize=12;html=1;endArrow=ERoneToMany;startArrow=ERzeroToOne;rounded=0;exitX=0;exitY=0.5;exitDx=0;exitDy=0;entryX=1;entryY=0.5;entryDx=0;entryDy=0;" edge="1" parent="1" source="h7mdjLOpak-RBpqD__Zv-42" target="h7mdjLOpak-RBpqD__Zv-1">
          <mxGeometry width="100" height="100" relative="1" as="geometry">
            <mxPoint x="358" y="374" as="sourcePoint" />
            <mxPoint x="458" y="274" as="targetPoint" />
          </mxGeometry>
        </mxCell>
      </root>
    </mxGraphModel>
  </diagram>
</mxfile>
